<svg xmlns="http://www.w3.org/2000/svg" xmlns:xlink="http://www.w3.org/1999/xlink" width="738.814" height="192.431" viewBox="0 0 738.814 192.431">
  <defs>
    <linearGradient id="linear-gradient" x1="0.787" y1="0.397" x2="-0.325" y2="1.727" gradientUnits="objectBoundingBox">
      <stop offset="0" stop-color="#fff"/>
      <stop offset="1" stop-color="#4e73df"/>
    </linearGradient>
  </defs>
  <g id="Grupo_1" data-name="Grupo 1" transform="translate(-607.186 -436.569)">
    <g id="Caminho_2" data-name="Caminho 2" transform="translate(608.54 502.209)" fill="#9498d6">
      <path d="M 132.9833068847656 120.0011215209961 L 56.77942276000977 120.0007247924805 L -0.5335421562194824 3.021914482116699 L 116.736457824707 8.253192901611328 L 132.9833068847656 120.0011215209961 Z" stroke="none"/>
      <path d="M 0.2863922119140625 3.558975219726562 L 57.09125518798828 119.5007095336914 L 132.4053649902344 119.5011215209961 L 116.3011245727539 8.734260559082031 L 0.2863922119140625 3.558975219726562 M -1.35345458984375 2.484832763671875 L 117.171760559082 7.772109985351562 L 133.5612640380859 120.5011291503906 L 56.46761322021484 120.5007095336914 L -1.35345458984375 2.484832763671875 Z" stroke="none" fill="#fff"/>
    </g>
    <g id="Caminho_4" data-name="Caminho 4" transform="matrix(1, -0.017, 0.017, 1, 629.952, 487.461)" fill="#45b7d3" opacity="0.883">
      <path d="M 33.12810516357422 131.0580902099609 L 0.6682239174842834 0.6147265434265137 L 33.03906631469727 5.857073307037354 L 33.09942626953125 99.18980407714844 L 33.12810516357422 131.0580902099609 Z" stroke="none"/>
      <path d="M 1.336441040039062 1.229476928710938 L 32.62442016601562 126.9634246826172 L 32.59942626953125 99.19010925292969 L 32.53934097290039 6.282669067382812 L 1.336441040039062 1.229476928710938 M 7.62939453125e-06 0 L 33.53879165649414 5.431488037109375 L 33.59942626953125 99.189453125 L 33.63179016113281 135.1527709960938 L 7.62939453125e-06 0 Z" stroke="none" fill="#fff"/>
    </g>
    <g id="Caminho_5" data-name="Caminho 5" transform="translate(669.68 461.641)" fill="#76c9d5" opacity="0.883">
      <path d="M -3.301057815551758 157.1951599121094 L -6.095767498016357 3.796625852584839 L 32.41781616210938 19.84013366699219 L 14.32818222045898 101.2529220581055 L -3.301057815551758 157.1951599121094 Z" stroke="none"/>
      <path d="M -5.581912994384766 4.552322387695312 L -2.856954574584961 154.1223449707031 L 13.84477996826172 101.1233367919922 L 31.83885955810547 20.14059448242188 L -5.581912994384766 4.552322387695312 M -6.609622955322266 3.040924072265625 L 32.99678039550781 19.53965759277344 L 14.811598777771 101.3824615478516 L -3.745161056518555 160.2679595947266 L -6.609622955322266 3.040924072265625 Z" stroke="none" fill="#fff"/>
    </g>
    <g id="Caminho_6" data-name="Caminho 6" transform="translate(714.971 439)" fill="url(#linear-gradient)">
      <path d="M 90.46333312988281 183.2202301025391 L -49.25649261474609 183.2202301025391 L -3.747897624969482 -1.615163922309875 L 72.08282470703125 49.67810440063477 L 72.66006469726562 50.06855773925781 L 72.84503936767578 49.39667510986328 L 78.13697052001953 30.17535209655762 L 119.0271987915039 65.63874053955078 L 90.46333312988281 183.2202301025391 Z" stroke="none"/>
      <path d="M -3.433906555175781 -0.799102783203125 L -48.61845397949219 182.7202301025391 L 90.07024383544922 182.7202301025391 L 118.4693908691406 65.8167724609375 L 78.40849304199219 31.07267761230469 L 73.32709503173828 49.52935791015625 L 72.95714569091797 50.87312316894531 L 71.80268859863281 50.09223937988281 L -3.433906555175781 -0.799102783203125 M -4.061927795410156 -2.43121337890625 L 72.36297607421875 49.26393127441406 L 77.86540222167969 29.27798461914062 L 119.5849990844727 65.46062469482422 L 90.85640716552734 183.7202301025391 L -49.89452362060547 183.7202301025391 L -4.061927795410156 -2.43121337890625 Z" stroke="none" fill="#fff"/>
    </g>
    <text id="S_I_R_A" data-name="S I R A" transform="translate(865 585)" fill="#fff" font-size="131" font-family="Arial-Black, Arial Black" font-weight="800"><tspan x="0" y="0">S I R A</tspan></text>
    <text id="Solução_de_Controlo_e_Registo_de_Automóvel" data-name="Solução de Controlo e Registo de Automóvel" transform="translate(865 621)" fill="#fff" font-size="25" font-family="LaoSangamMN, Lao Sangam MN"><tspan x="0" y="0">Solu</tspan><tspan y="0" font-family="LucidaGrande, Lucida Grande">çã</tspan><tspan y="0">o de Controlo e Registo de Autom</tspan><tspan y="0" font-family="LucidaGrande, Lucida Grande">ó</tspan><tspan y="0">vel</tspan></text>
  </g>
</svg>
